<mxfile host="app.diagrams.net" modified="2024-03-05T17:51:41.452Z" agent="Mozilla/5.0 (Windows NT 10.0; Win64; x64) AppleWebKit/537.36 (KHTML, like Gecko) Chrome/122.0.0.0 Safari/537.36" etag="HqS0GGVH0AfT2rjmhYO3" version="24.0.1" type="github">
  <diagram id="4Njk36HmI4AVf80KfDFJ" name="Sayfa -1">
    <mxGraphModel dx="880" dy="434" grid="1" gridSize="10" guides="1" tooltips="1" connect="1" arrows="1" fold="1" page="1" pageScale="1" pageWidth="827" pageHeight="1169" math="0" shadow="0">
      <root>
        <mxCell id="0" />
        <mxCell id="1" parent="0" />
        <mxCell id="RGoP8sfqEhQTAJMyW-Pk-1" value="&lt;b&gt;1. Veri Seti&lt;/b&gt;" style="rounded=0;whiteSpace=wrap;html=1;fillColor=#e1d5e7;strokeColor=#9673a6;" parent="1" vertex="1">
          <mxGeometry x="150" y="120" width="250" height="40" as="geometry" />
        </mxCell>
        <mxCell id="RGoP8sfqEhQTAJMyW-Pk-4" value="SVR1" style="ellipse;whiteSpace=wrap;html=1;aspect=fixed;fillColor=#fff2cc;strokeColor=#d6b656;" parent="1" vertex="1">
          <mxGeometry x="150" y="240" width="40" height="40" as="geometry" />
        </mxCell>
        <mxCell id="RGoP8sfqEhQTAJMyW-Pk-5" value="KMR1" style="ellipse;whiteSpace=wrap;html=1;aspect=fixed;fillColor=#d5e8d4;strokeColor=#82b366;" parent="1" vertex="1">
          <mxGeometry x="200" y="240" width="40" height="40" as="geometry" />
        </mxCell>
        <mxCell id="RGoP8sfqEhQTAJMyW-Pk-6" value="DTR1" style="ellipse;whiteSpace=wrap;html=1;aspect=fixed;fillColor=#e1d5e7;strokeColor=#9673a6;" parent="1" vertex="1">
          <mxGeometry x="250" y="240" width="40" height="40" as="geometry" />
        </mxCell>
        <mxCell id="RGoP8sfqEhQTAJMyW-Pk-7" value="RFR1" style="ellipse;whiteSpace=wrap;html=1;aspect=fixed;fillColor=#fff2cc;strokeColor=#d6b656;" parent="1" vertex="1">
          <mxGeometry x="299" y="240" width="40" height="40" as="geometry" />
        </mxCell>
        <mxCell id="RGoP8sfqEhQTAJMyW-Pk-8" value="XGB1" style="ellipse;whiteSpace=wrap;html=1;aspect=fixed;fillColor=#d5e8d4;strokeColor=#82b366;" parent="1" vertex="1">
          <mxGeometry x="350" y="240" width="40" height="40" as="geometry" />
        </mxCell>
        <mxCell id="RGoP8sfqEhQTAJMyW-Pk-10" value="" style="endArrow=none;html=1;rounded=0;" parent="1" edge="1">
          <mxGeometry width="50" height="50" relative="1" as="geometry">
            <mxPoint x="219.5" y="240" as="sourcePoint" />
            <mxPoint x="219.5" y="160" as="targetPoint" />
          </mxGeometry>
        </mxCell>
        <mxCell id="RGoP8sfqEhQTAJMyW-Pk-11" value="" style="endArrow=none;html=1;rounded=0;" parent="1" edge="1">
          <mxGeometry width="50" height="50" relative="1" as="geometry">
            <mxPoint x="269.5" y="240" as="sourcePoint" />
            <mxPoint x="269.5" y="160" as="targetPoint" />
          </mxGeometry>
        </mxCell>
        <mxCell id="RGoP8sfqEhQTAJMyW-Pk-12" value="" style="endArrow=none;html=1;rounded=0;" parent="1" edge="1">
          <mxGeometry width="50" height="50" relative="1" as="geometry">
            <mxPoint x="169.5" y="240" as="sourcePoint" />
            <mxPoint x="169.5" y="160" as="targetPoint" />
          </mxGeometry>
        </mxCell>
        <mxCell id="RGoP8sfqEhQTAJMyW-Pk-13" value="" style="endArrow=none;html=1;rounded=0;" parent="1" edge="1">
          <mxGeometry width="50" height="50" relative="1" as="geometry">
            <mxPoint x="318.5" y="240" as="sourcePoint" />
            <mxPoint x="318.5" y="160" as="targetPoint" />
          </mxGeometry>
        </mxCell>
        <mxCell id="RGoP8sfqEhQTAJMyW-Pk-14" value="" style="endArrow=none;html=1;rounded=0;" parent="1" edge="1">
          <mxGeometry width="50" height="50" relative="1" as="geometry">
            <mxPoint x="369.5" y="240" as="sourcePoint" />
            <mxPoint x="369.5" y="160" as="targetPoint" />
          </mxGeometry>
        </mxCell>
        <mxCell id="RGoP8sfqEhQTAJMyW-Pk-15" value="&lt;b&gt;2. Veri Seti&lt;/b&gt;" style="rounded=0;whiteSpace=wrap;html=1;fillColor=#fff2cc;strokeColor=#d6b656;" parent="1" vertex="1">
          <mxGeometry x="420" y="120" width="250" height="40" as="geometry" />
        </mxCell>
        <mxCell id="RGoP8sfqEhQTAJMyW-Pk-16" value="SVR2" style="ellipse;whiteSpace=wrap;html=1;aspect=fixed;fillColor=#d5e8d4;strokeColor=#82b366;" parent="1" vertex="1">
          <mxGeometry x="420" y="240" width="40" height="40" as="geometry" />
        </mxCell>
        <mxCell id="RGoP8sfqEhQTAJMyW-Pk-17" value="KMR2" style="ellipse;whiteSpace=wrap;html=1;aspect=fixed;fillColor=#e1d5e7;strokeColor=#9673a6;" parent="1" vertex="1">
          <mxGeometry x="470" y="240" width="40" height="40" as="geometry" />
        </mxCell>
        <mxCell id="RGoP8sfqEhQTAJMyW-Pk-18" value="DTR2" style="ellipse;whiteSpace=wrap;html=1;aspect=fixed;fillColor=#fff2cc;strokeColor=#d6b656;" parent="1" vertex="1">
          <mxGeometry x="520" y="240" width="40" height="40" as="geometry" />
        </mxCell>
        <mxCell id="RGoP8sfqEhQTAJMyW-Pk-19" value="RFR2" style="ellipse;whiteSpace=wrap;html=1;aspect=fixed;fillColor=#d5e8d4;strokeColor=#82b366;" parent="1" vertex="1">
          <mxGeometry x="569" y="240" width="40" height="40" as="geometry" />
        </mxCell>
        <mxCell id="RGoP8sfqEhQTAJMyW-Pk-20" value="XGB2" style="ellipse;whiteSpace=wrap;html=1;aspect=fixed;fillColor=#e1d5e7;strokeColor=#9673a6;" parent="1" vertex="1">
          <mxGeometry x="620" y="240" width="40" height="40" as="geometry" />
        </mxCell>
        <mxCell id="RGoP8sfqEhQTAJMyW-Pk-21" value="" style="endArrow=none;html=1;rounded=0;" parent="1" edge="1">
          <mxGeometry width="50" height="50" relative="1" as="geometry">
            <mxPoint x="489.5" y="240" as="sourcePoint" />
            <mxPoint x="489.5" y="160" as="targetPoint" />
          </mxGeometry>
        </mxCell>
        <mxCell id="RGoP8sfqEhQTAJMyW-Pk-22" value="" style="endArrow=none;html=1;rounded=0;" parent="1" edge="1">
          <mxGeometry width="50" height="50" relative="1" as="geometry">
            <mxPoint x="539.5" y="240" as="sourcePoint" />
            <mxPoint x="539.5" y="160" as="targetPoint" />
          </mxGeometry>
        </mxCell>
        <mxCell id="RGoP8sfqEhQTAJMyW-Pk-23" value="" style="endArrow=none;html=1;rounded=0;" parent="1" edge="1">
          <mxGeometry width="50" height="50" relative="1" as="geometry">
            <mxPoint x="439.5" y="240" as="sourcePoint" />
            <mxPoint x="439.5" y="160" as="targetPoint" />
          </mxGeometry>
        </mxCell>
        <mxCell id="RGoP8sfqEhQTAJMyW-Pk-24" value="" style="endArrow=none;html=1;rounded=0;" parent="1" edge="1">
          <mxGeometry width="50" height="50" relative="1" as="geometry">
            <mxPoint x="588.5" y="240" as="sourcePoint" />
            <mxPoint x="588.5" y="160" as="targetPoint" />
          </mxGeometry>
        </mxCell>
        <mxCell id="RGoP8sfqEhQTAJMyW-Pk-25" value="" style="endArrow=none;html=1;rounded=0;" parent="1" edge="1">
          <mxGeometry width="50" height="50" relative="1" as="geometry">
            <mxPoint x="639.5" y="240" as="sourcePoint" />
            <mxPoint x="639.5" y="160" as="targetPoint" />
          </mxGeometry>
        </mxCell>
        <mxCell id="RGoP8sfqEhQTAJMyW-Pk-26" value="&lt;b&gt;3. Veri Seti&lt;/b&gt;" style="rounded=0;whiteSpace=wrap;html=1;fillColor=#d5e8d4;strokeColor=#82b366;" parent="1" vertex="1">
          <mxGeometry x="690" y="120" width="250" height="40" as="geometry" />
        </mxCell>
        <mxCell id="RGoP8sfqEhQTAJMyW-Pk-27" value="SVR3" style="ellipse;whiteSpace=wrap;html=1;aspect=fixed;fillColor=#e1d5e7;strokeColor=#9673a6;" parent="1" vertex="1">
          <mxGeometry x="690" y="240" width="40" height="40" as="geometry" />
        </mxCell>
        <mxCell id="RGoP8sfqEhQTAJMyW-Pk-28" value="KMR3" style="ellipse;whiteSpace=wrap;html=1;aspect=fixed;fillColor=#fff2cc;strokeColor=#d6b656;" parent="1" vertex="1">
          <mxGeometry x="740" y="240" width="40" height="40" as="geometry" />
        </mxCell>
        <mxCell id="RGoP8sfqEhQTAJMyW-Pk-29" value="DTR3" style="ellipse;whiteSpace=wrap;html=1;aspect=fixed;fillColor=#d5e8d4;strokeColor=#82b366;" parent="1" vertex="1">
          <mxGeometry x="790" y="240" width="40" height="40" as="geometry" />
        </mxCell>
        <mxCell id="RGoP8sfqEhQTAJMyW-Pk-30" value="RFR3" style="ellipse;whiteSpace=wrap;html=1;aspect=fixed;fillColor=#e1d5e7;strokeColor=#9673a6;" parent="1" vertex="1">
          <mxGeometry x="839" y="240" width="40" height="40" as="geometry" />
        </mxCell>
        <mxCell id="RGoP8sfqEhQTAJMyW-Pk-31" value="XGB3" style="ellipse;whiteSpace=wrap;html=1;aspect=fixed;fillColor=#fff2cc;strokeColor=#d6b656;" parent="1" vertex="1">
          <mxGeometry x="890" y="240" width="40" height="40" as="geometry" />
        </mxCell>
        <mxCell id="RGoP8sfqEhQTAJMyW-Pk-32" value="" style="endArrow=none;html=1;rounded=0;" parent="1" edge="1">
          <mxGeometry width="50" height="50" relative="1" as="geometry">
            <mxPoint x="759.5" y="240" as="sourcePoint" />
            <mxPoint x="759.5" y="160" as="targetPoint" />
          </mxGeometry>
        </mxCell>
        <mxCell id="RGoP8sfqEhQTAJMyW-Pk-33" value="" style="endArrow=none;html=1;rounded=0;" parent="1" edge="1">
          <mxGeometry width="50" height="50" relative="1" as="geometry">
            <mxPoint x="809.5" y="240" as="sourcePoint" />
            <mxPoint x="809.5" y="160" as="targetPoint" />
          </mxGeometry>
        </mxCell>
        <mxCell id="RGoP8sfqEhQTAJMyW-Pk-34" value="" style="endArrow=none;html=1;rounded=0;" parent="1" edge="1">
          <mxGeometry width="50" height="50" relative="1" as="geometry">
            <mxPoint x="709.5" y="240" as="sourcePoint" />
            <mxPoint x="709.5" y="160" as="targetPoint" />
          </mxGeometry>
        </mxCell>
        <mxCell id="RGoP8sfqEhQTAJMyW-Pk-35" value="" style="endArrow=none;html=1;rounded=0;" parent="1" edge="1">
          <mxGeometry width="50" height="50" relative="1" as="geometry">
            <mxPoint x="858.5" y="240" as="sourcePoint" />
            <mxPoint x="858.5" y="160" as="targetPoint" />
          </mxGeometry>
        </mxCell>
        <mxCell id="RGoP8sfqEhQTAJMyW-Pk-36" value="" style="endArrow=none;html=1;rounded=0;" parent="1" edge="1">
          <mxGeometry width="50" height="50" relative="1" as="geometry">
            <mxPoint x="909.5" y="240" as="sourcePoint" />
            <mxPoint x="909.5" y="160" as="targetPoint" />
          </mxGeometry>
        </mxCell>
        <mxCell id="RGoP8sfqEhQTAJMyW-Pk-37" value="" style="endArrow=none;html=1;rounded=0;" parent="1" edge="1">
          <mxGeometry width="50" height="50" relative="1" as="geometry">
            <mxPoint x="170" y="320" as="sourcePoint" />
            <mxPoint x="910" y="320" as="targetPoint" />
          </mxGeometry>
        </mxCell>
        <mxCell id="RGoP8sfqEhQTAJMyW-Pk-38" value="" style="endArrow=none;html=1;rounded=0;" parent="1" edge="1">
          <mxGeometry width="50" height="50" relative="1" as="geometry">
            <mxPoint x="170" y="320" as="sourcePoint" />
            <mxPoint x="169.5" y="280" as="targetPoint" />
          </mxGeometry>
        </mxCell>
        <mxCell id="RGoP8sfqEhQTAJMyW-Pk-39" value="" style="endArrow=none;html=1;rounded=0;" parent="1" edge="1">
          <mxGeometry width="50" height="50" relative="1" as="geometry">
            <mxPoint x="910" y="320" as="sourcePoint" />
            <mxPoint x="909.5" y="280" as="targetPoint" />
          </mxGeometry>
        </mxCell>
        <mxCell id="RGoP8sfqEhQTAJMyW-Pk-40" value="" style="endArrow=none;html=1;rounded=0;" parent="1" edge="1">
          <mxGeometry width="50" height="50" relative="1" as="geometry">
            <mxPoint x="220" y="320" as="sourcePoint" />
            <mxPoint x="219.5" y="280" as="targetPoint" />
          </mxGeometry>
        </mxCell>
        <mxCell id="RGoP8sfqEhQTAJMyW-Pk-41" value="" style="endArrow=none;html=1;rounded=0;" parent="1" edge="1">
          <mxGeometry width="50" height="50" relative="1" as="geometry">
            <mxPoint x="270" y="320" as="sourcePoint" />
            <mxPoint x="269.5" y="280" as="targetPoint" />
          </mxGeometry>
        </mxCell>
        <mxCell id="RGoP8sfqEhQTAJMyW-Pk-42" value="" style="endArrow=none;html=1;rounded=0;" parent="1" edge="1">
          <mxGeometry width="50" height="50" relative="1" as="geometry">
            <mxPoint x="319" y="320" as="sourcePoint" />
            <mxPoint x="318.5" y="280" as="targetPoint" />
          </mxGeometry>
        </mxCell>
        <mxCell id="RGoP8sfqEhQTAJMyW-Pk-43" value="" style="endArrow=none;html=1;rounded=0;" parent="1" edge="1">
          <mxGeometry width="50" height="50" relative="1" as="geometry">
            <mxPoint x="370" y="320" as="sourcePoint" />
            <mxPoint x="369.5" y="280" as="targetPoint" />
          </mxGeometry>
        </mxCell>
        <mxCell id="RGoP8sfqEhQTAJMyW-Pk-44" value="" style="endArrow=none;html=1;rounded=0;" parent="1" edge="1">
          <mxGeometry width="50" height="50" relative="1" as="geometry">
            <mxPoint x="440" y="320" as="sourcePoint" />
            <mxPoint x="439.5" y="280" as="targetPoint" />
          </mxGeometry>
        </mxCell>
        <mxCell id="RGoP8sfqEhQTAJMyW-Pk-45" value="" style="endArrow=none;html=1;rounded=0;" parent="1" edge="1">
          <mxGeometry width="50" height="50" relative="1" as="geometry">
            <mxPoint x="490" y="320" as="sourcePoint" />
            <mxPoint x="489.5" y="280" as="targetPoint" />
          </mxGeometry>
        </mxCell>
        <mxCell id="RGoP8sfqEhQTAJMyW-Pk-46" value="" style="endArrow=none;html=1;rounded=0;" parent="1" edge="1">
          <mxGeometry width="50" height="50" relative="1" as="geometry">
            <mxPoint x="540" y="320" as="sourcePoint" />
            <mxPoint x="539.5" y="280" as="targetPoint" />
          </mxGeometry>
        </mxCell>
        <mxCell id="RGoP8sfqEhQTAJMyW-Pk-47" value="" style="endArrow=none;html=1;rounded=0;" parent="1" edge="1">
          <mxGeometry width="50" height="50" relative="1" as="geometry">
            <mxPoint x="589" y="320" as="sourcePoint" />
            <mxPoint x="588.5" y="280" as="targetPoint" />
          </mxGeometry>
        </mxCell>
        <mxCell id="RGoP8sfqEhQTAJMyW-Pk-48" value="" style="endArrow=none;html=1;rounded=0;" parent="1" edge="1">
          <mxGeometry width="50" height="50" relative="1" as="geometry">
            <mxPoint x="640" y="320" as="sourcePoint" />
            <mxPoint x="639.5" y="280" as="targetPoint" />
          </mxGeometry>
        </mxCell>
        <mxCell id="RGoP8sfqEhQTAJMyW-Pk-49" value="" style="endArrow=none;html=1;rounded=0;" parent="1" edge="1">
          <mxGeometry width="50" height="50" relative="1" as="geometry">
            <mxPoint x="710" y="320" as="sourcePoint" />
            <mxPoint x="709.5" y="280" as="targetPoint" />
          </mxGeometry>
        </mxCell>
        <mxCell id="RGoP8sfqEhQTAJMyW-Pk-50" value="" style="endArrow=none;html=1;rounded=0;" parent="1" edge="1">
          <mxGeometry width="50" height="50" relative="1" as="geometry">
            <mxPoint x="760" y="320" as="sourcePoint" />
            <mxPoint x="759.5" y="280" as="targetPoint" />
          </mxGeometry>
        </mxCell>
        <mxCell id="RGoP8sfqEhQTAJMyW-Pk-51" value="" style="endArrow=none;html=1;rounded=0;" parent="1" edge="1">
          <mxGeometry width="50" height="50" relative="1" as="geometry">
            <mxPoint x="810" y="320" as="sourcePoint" />
            <mxPoint x="809.5" y="280" as="targetPoint" />
          </mxGeometry>
        </mxCell>
        <mxCell id="RGoP8sfqEhQTAJMyW-Pk-52" value="" style="endArrow=none;html=1;rounded=0;" parent="1" edge="1">
          <mxGeometry width="50" height="50" relative="1" as="geometry">
            <mxPoint x="859" y="320" as="sourcePoint" />
            <mxPoint x="858.5" y="280" as="targetPoint" />
          </mxGeometry>
        </mxCell>
        <mxCell id="RGoP8sfqEhQTAJMyW-Pk-53" value="" style="endArrow=classic;html=1;rounded=0;" parent="1" edge="1">
          <mxGeometry width="50" height="50" relative="1" as="geometry">
            <mxPoint x="560" y="320" as="sourcePoint" />
            <mxPoint x="560" y="360" as="targetPoint" />
          </mxGeometry>
        </mxCell>
        <mxCell id="RGoP8sfqEhQTAJMyW-Pk-54" value="HİBRİT TOPLULUK MODELİ" style="rounded=1;whiteSpace=wrap;html=1;fillColor=#f8cecc;strokeColor=#b85450;gradientColor=#ea6b66;" parent="1" vertex="1">
          <mxGeometry x="470" y="360" width="190" height="40" as="geometry" />
        </mxCell>
      </root>
    </mxGraphModel>
  </diagram>
</mxfile>
